<svg width="0" height="0" class="hidden">
  <symbol fill="currentColor" id="account" xmlns="http://www.w3.org/2000/svg" viewBox="0 0 48 48">
    <title></title>
    <path d="M24,21A10,10,0,1,1,34,11,10,10,0,0,1,24,21ZM24,5a6,6,0,1,0,6,6A6,6,0,0,0,24,5Z"></path>
    <path d="M42,47H6a2,2,0,0,1-2-2V39A16,16,0,0,1,20,23h8A16,16,0,0,1,44,39v6A2,2,0,0,1,42,47ZM8,43H40V39A12,12,0,0,0,28,27H20A12,12,0,0,0,8,39Z" stroke="currentColor"></path>
  </symbol>
  <symbol fill="currentColor" version="1.1" id="search" xmlns="http://www.w3.org/2000/svg" xmlns:xlink="http://www.w3.org/1999/xlink" x="0px" y="0px" xml:space="preserve" viewBox="0 0 52.966 52.966">
    <path d="M51.704,51.273L36.845,35.82c3.79-3.801,6.138-9.041,6.138-14.82c0-11.58-9.42-21-21-21s-21,9.42-21,21s9.42,21,21,21
	c5.083,0,9.748-1.817,13.384-4.832l14.895,15.491c0.196,0.205,0.458,0.307,0.721,0.307c0.25,0,0.499-0.093,0.693-0.279
	C52.074,52.304,52.086,51.671,51.704,51.273z M21.983,40c-10.477,0-19-8.523-19-19s8.523-19,19-19s19,8.523,19,19
	S32.459,40,21.983,40z" stroke="currentColor"></path>
  </symbol>
  <symbol fill="currentColor" version="1.1" id="recruitment" xmlns="http://www.w3.org/2000/svg" xmlns:xlink="http://www.w3.org/1999/xlink" x="0px" y="0px" xml:space="preserve" viewBox="0 0 495.485 495.485">
    <g id="XMLID_158_">
      <path id="XMLID_162_" d="M387.998,105.937h-17.765c-22.969,0-41.605,18.629-41.605,41.605v3.052l52.523-37.304
		c0.048-0.034,0.109-0.04,0.159-0.074c-0.05,0.04-0.099,0.049-0.142,0.088l-69.363,63.773l-71.121,30.29
		c-10.505,4.464-15.397,16.605-10.93,27.108c3.359,7.862,10.997,12.578,19.036,12.578c2.7,0,5.444-0.534,8.073-1.664l74.398-31.676
		c2.18-0.921,4.164-2.205,5.896-3.804l71.973-66.187c0.061-0.055,0.08-0.138,0.142-0.193c-0.061,0.064-0.08,0.144-0.13,0.209
		L345.55,219.04c-1.841,2.179-4.081,3.803-6.539,4.859l-2.891,1.228l-7.492,3.187l0.031,242.372c0,13.698,11.112,24.8,24.8,24.8
		c5.653,0,10.819-1.971,14.98-5.167c-3.18-5.861-5.164-12.48-5.164-19.633V322.901h16.536v147.784c0,13.698,11.107,24.8,24.8,24.8
		c13.688,0,24.793-11.102,24.793-24.8c0,0,0.196-208.497,0.196-323.144C429.601,124.566,410.971,105.937,387.998,105.937z"></path>
      <path id="XMLID_161_" d="M379.13,96.635c26.704,0,48.323-21.625,48.323-48.313C427.454,21.625,405.835,0,379.13,0
		c-26.684,0-48.321,21.625-48.321,48.322C330.809,75.01,352.447,96.635,379.13,96.635z"></path>
      <path id="XMLID_160_" d="M116.355,96.635c26.685,0,48.323-21.625,48.323-48.313C164.678,21.625,143.04,0,116.355,0
		C89.653,0,68.034,21.625,68.034,48.322C68.034,75.01,89.653,96.635,116.355,96.635z"></path>
      <path id="XMLID_159_" d="M177.092,173.825l-55.15-53.198l44.916,34.664v-7.749c0-22.976-18.636-41.605-41.605-41.605H107.49
		c-22.977,0-41.605,18.629-41.605,41.605c0,118.313,0.196,323.144,0.196,323.144c0,13.698,11.107,24.8,24.793,24.8
		c13.693,0,24.8-11.102,24.8-24.8V322.901h16.536v147.784c0,7.153-1.99,13.772-5.17,19.633c4.169,3.196,9.332,5.167,14.987,5.167
		c13.686,0,24.8-11.102,24.8-24.8l0.031-242.66l-16.504-11.737l-5.275-3.748c-0.307-0.224-0.602-0.5-0.841-0.783l-51.005-61.376
		l57.089,55.063c1.295,1.234,2.733,2.309,4.299,3.175l68.13,37.954c-1.714-2.194-3.243-4.559-4.391-7.238
		c-5.734-13.475-1.743-28.505,8.682-37.675L177.092,173.825z" stroke="currentColor"></path>
    </g>
  </symbol>
  <symbol fill="currentColor" version="1.1" id="work-space" xmlns="http://www.w3.org/2000/svg" xmlns:xlink="http://www.w3.org/1999/xlink" x="0px" y="0px" xml:space="preserve" viewBox="0 0 32 32">
    <path d="M31.5,7H21V3.5C21,3.224,20.776,3,20.5,3h-9C11.224,3,11,3.224,11,3.5V7H0.5C0.224,7,0,7.224,0,7.5v20
	C0,27.776,0.224,28,0.5,28h31c0.276,0,0.5-0.224,0.5-0.5v-20C32,7.224,31.776,7,31.5,7z M12,4h8v3h-8V4z M31,27H1V8h30V27z M6,11.5
	v2C6,13.776,5.776,14,5.5,14S5,13.776,5,13.5v-2C5,11.224,5.224,11,5.5,11S6,11.224,6,11.5z M6,16.5v2C6,18.776,5.776,19,5.5,19
	S5,18.776,5,18.5v-2C5,16.224,5.224,16,5.5,16S6,16.224,6,16.5z M6,21.5v2C6,23.776,5.776,24,5.5,24S5,23.776,5,23.5v-2
	C5,21.224,5.224,21,5.5,21S6,21.224,6,21.5z M27,11.5v2c0,0.276-0.224,0.5-0.5,0.5S26,13.776,26,13.5v-2c0-0.276,0.224-0.5,0.5-0.5
	S27,11.224,27,11.5z M27,16.5v2c0,0.276-0.224,0.5-0.5,0.5S26,18.776,26,18.5v-2c0-0.276,0.224-0.5,0.5-0.5S27,16.224,27,16.5z
	 M27,21.5v2c0,0.276-0.224,0.5-0.5,0.5S26,23.776,26,23.5v-2c0-0.276,0.224-0.5,0.5-0.5S27,21.224,27,21.5z" stroke="currentColor"></path>
  </symbol>
  <symbol fill="currentColor" version="1.1" id="news" xmlns="http://www.w3.org/2000/svg" xmlns:xlink="http://www.w3.org/1999/xlink" x="0px" y="0px" xml:space="preserve" viewBox="0 0 242.937 242.937">
    <g stroke="currentColor">
      <path d="M235.437,60.699h-31.709V30.927c0-4.142-3.358-7.5-7.5-7.5H7.5c-4.142,0-7.5,3.358-7.5,7.5v161.478
		c0,14.945,12.159,27.104,27.104,27.104h188.728c14.945,0,27.105-12.159,27.105-27.104V68.199
		C242.937,64.057,239.579,60.699,235.437,60.699z M15,192.405V38.427h173.728v29.771v124.206c0,4.349,1.036,8.458,2.864,12.104
		H27.104C20.43,204.509,15,199.079,15,192.405z M215.832,204.509c-6.674,0-12.104-5.43-12.104-12.104V75.699h24.209v116.706
		C227.937,199.079,222.506,204.509,215.832,204.509z"></path>
      <path d="M39.351,78.374h125.025c4.142,0,7.5-3.358,7.5-7.5c0-4.142-3.358-7.5-7.5-7.5H39.351c-4.142,0-7.5,3.358-7.5,7.5
		C31.851,75.016,35.208,78.374,39.351,78.374z"></path>
      <path d="M39.008,115.893c0,12.44,10.12,22.561,22.56,22.561c12.438,0,22.558-10.121,22.558-22.561
		c0-12.441-10.119-22.563-22.558-22.563C49.128,93.33,39.008,103.452,39.008,115.893z M69.125,115.893
		c0,4.169-3.39,7.561-7.558,7.561c-4.168,0-7.56-3.392-7.56-7.561c0-4.17,3.391-7.563,7.56-7.563
		C65.735,108.33,69.125,111.723,69.125,115.893z"></path>
      <path d="M39.351,180.02c4.142,0,7.5-3.358,7.5-7.5v-8.361c0-3.899,3.174-7.072,7.075-7.072h15.277c3.903,0,7.078,3.172,7.078,7.072
		v8.361c0,4.142,3.358,7.5,7.5,7.5c4.142,0,7.5-3.358,7.5-7.5v-8.361c0-12.17-9.904-22.072-22.078-22.072H53.926
		c-12.172,0-22.075,9.901-22.075,22.072v8.361C31.851,176.662,35.208,180.02,39.351,180.02z"></path>
      <path d="M164.376,97.063h-57.763c-4.142,0-7.5,3.358-7.5,7.5c0,4.142,3.358,7.5,7.5,7.5h57.763c4.142,0,7.5-3.358,7.5-7.5
		C171.876,100.421,168.518,97.063,164.376,97.063z"></path>
      <path d="M164.376,164.443h-57.763c-4.142,0-7.5,3.358-7.5,7.5s3.358,7.5,7.5,7.5h57.763c4.142,0,7.5-3.358,7.5-7.5
		S168.518,164.443,164.376,164.443z"></path>
      <path d="M164.376,130.753h-57.763c-4.142,0-7.5,3.358-7.5,7.5c0,4.142,3.358,7.5,7.5,7.5h57.763c4.142,0,7.5-3.358,7.5-7.5
		C171.876,134.111,168.518,130.753,164.376,130.753z"></path>
    </g>
  </symbol>
</svg>