<svg width="0" height="0" class="hidden">
  <symbol xmlns="http://www.w3.org/2000/svg" fill="currentColor" viewBox="0 0 16 16" id="file">
    <path stroke="currentColor" fill-rule="evenodd" clip-rule="evenodd" d="M13.71 4.29l-3-3L10 1H4L3 2v12l1 1h9l1-1V5l-.29-.71zM13 14H4V2h5v4h4v8zm-3-9V2l3 3h-3z"></path>
  </symbol>
  <symbol version="1.1" id="internet" xmlns="http://www.w3.org/2000/svg" xmlns:xlink="http://www.w3.org/1999/xlink" x="0px" y="0px" xml:space="preserve" viewBox="0 0 58 58">
    <path fill="currentColor" d="M50.688,48.222C55.232,43.101,58,36.369,58,29c0-7.667-2.996-14.643-7.872-19.834c0,0,0-0.001,0-0.001
	c-0.004-0.006-0.01-0.008-0.013-0.013c-5.079-5.399-12.195-8.855-20.11-9.126l-0.001-0.001L29.439,0.01C29.293,0.005,29.147,0,29,0
	s-0.293,0.005-0.439,0.01l-0.563,0.015l-0.001,0.001c-7.915,0.271-15.031,3.727-20.11,9.126c-0.004,0.005-0.01,0.007-0.013,0.013
	c0,0,0,0.001-0.001,0.002C2.996,14.357,0,21.333,0,29c0,7.369,2.768,14.101,7.312,19.222c0.006,0.009,0.006,0.019,0.013,0.028
	c0.018,0.025,0.044,0.037,0.063,0.06c5.106,5.708,12.432,9.385,20.608,9.665l0.001,0.001l0.563,0.015C28.707,57.995,28.853,58,29,58
	s0.293-0.005,0.439-0.01l0.563-0.015l0.001-0.001c8.185-0.281,15.519-3.965,20.625-9.685c0.013-0.017,0.034-0.022,0.046-0.04
	C50.682,48.241,50.682,48.231,50.688,48.222z M2.025,30h12.003c0.113,4.239,0.941,8.358,2.415,12.217
	c-2.844,1.029-5.563,2.409-8.111,4.131C4.585,41.891,2.253,36.21,2.025,30z M8.878,11.023c2.488,1.618,5.137,2.914,7.9,3.882
	C15.086,19.012,14.15,23.44,14.028,28H2.025C2.264,21.493,4.812,15.568,8.878,11.023z M55.975,28H43.972
	c-0.122-4.56-1.058-8.988-2.75-13.095c2.763-0.968,5.412-2.264,7.9-3.882C53.188,15.568,55.736,21.493,55.975,28z M28,14.963
	c-2.891-0.082-5.729-0.513-8.471-1.283C21.556,9.522,24.418,5.769,28,2.644V14.963z M28,16.963V28H16.028
	c0.123-4.348,1.035-8.565,2.666-12.475C21.7,16.396,24.821,16.878,28,16.963z M30,16.963c3.179-0.085,6.3-0.566,9.307-1.438
	c1.631,3.91,2.543,8.127,2.666,12.475H30V16.963z M30,14.963V2.644c3.582,3.125,6.444,6.878,8.471,11.036
	C35.729,14.45,32.891,14.881,30,14.963z M40.409,13.072c-1.921-4.025-4.587-7.692-7.888-10.835
	c5.856,0.766,11.125,3.414,15.183,7.318C45.4,11.017,42.956,12.193,40.409,13.072z M17.591,13.072
	c-2.547-0.879-4.991-2.055-7.294-3.517c4.057-3.904,9.327-6.552,15.183-7.318C22.178,5.38,19.512,9.047,17.591,13.072z M16.028,30
	H28v10.038c-3.307,0.088-6.547,0.604-9.661,1.541C16.932,37.924,16.141,34.019,16.028,30z M28,42.038v13.318
	c-3.834-3.345-6.84-7.409-8.884-11.917C21.983,42.594,24.961,42.124,28,42.038z M30,55.356V42.038
	c3.039,0.085,6.017,0.556,8.884,1.4C36.84,47.947,33.834,52.011,30,55.356z M30,40.038V30h11.972
	c-0.113,4.019-0.904,7.924-2.312,11.58C36.547,40.642,33.307,40.126,30,40.038z M43.972,30h12.003
	c-0.228,6.21-2.559,11.891-6.307,16.348c-2.548-1.722-5.267-3.102-8.111-4.131C43.032,38.358,43.859,34.239,43.972,30z
	 M9.691,47.846c2.366-1.572,4.885-2.836,7.517-3.781c1.945,4.36,4.737,8.333,8.271,11.698C19.328,54.958,13.823,52.078,9.691,47.846
	z M32.521,55.763c3.534-3.364,6.326-7.337,8.271-11.698c2.632,0.945,5.15,2.209,7.517,3.781
	C44.177,52.078,38.672,54.958,32.521,55.763z"></path>
  </symbol>
  <symbol version="1.1" id="home" xmlns="http://www.w3.org/2000/svg" xmlns:xlink="http://www.w3.org/1999/xlink" fill="currentColor" x="0px" y="0px" xml:space="preserve" viewBox="0 0 58.365 58.365">
    <path d="M57.863,26.632l-8.681-8.061V5.365h-10v3.921L29.182,0L0.502,26.632c-0.404,0.376-0.428,1.009-0.052,1.414
	c0.375,0.404,1.008,0.427,1.414,0.052l3.319-3.082v33.349h16h16h16V25.015l3.319,3.082c0.192,0.179,0.437,0.267,0.681,0.267
	c0.269,0,0.536-0.107,0.732-0.319C58.291,27.641,58.267,27.008,57.863,26.632z M41.182,7.365h6v9.349l-6-5.571V7.365z
	 M23.182,56.365V35.302c0-0.517,0.42-0.937,0.937-0.937h10.126c0.517,0,0.937,0.42,0.937,0.937v21.063H23.182z M51.182,56.365h-14
	V35.302c0-1.62-1.317-2.937-2.937-2.937H24.119c-1.62,0-2.937,1.317-2.937,2.937v21.063h-14V23.158l22-20.429l14.28,13.26
	l5.72,5.311v0l2,1.857V56.365z"></path>
  </symbol>
  <symbol fill="none" xmlns="http://www.w3.org/2000/svg" viewBox="0 0 18 15" id="mail">
    <path d="M17 2.6C17 1.72 16.28 1 15.4 1H2.6C1.72 1 1 1.72 1 2.6M17 2.6V12.2C17 13.08 16.28 13.8 15.4 13.8H2.6C1.72 13.8 1 13.08 1 12.2V2.6M17 2.6L9 8.2L1 2.6" stroke="currentColor" stroke-linecap="round" stroke-linejoin="round"></path>
  </symbol>
  <symbol fill="none" xmlns="http://www.w3.org/2000/svg" viewBox="0 0 18 18" id="phone">
    <path d="M16.9995 13.0029V15.4163C17.0004 15.6403 16.9545 15.8621 16.8648 16.0674C16.775 16.2727 16.6434 16.4569 16.4783 16.6084C16.3132 16.7599 16.1183 16.8752 15.906 16.947C15.6938 17.0187 15.4689 17.0454 15.2457 17.0252C12.7702 16.7562 10.3923 15.9103 8.30312 14.5555C6.35937 13.3204 4.71141 11.6724 3.47627 9.72864C2.11669 7.62993 1.27059 5.24046 1.00653 2.75383C0.986426 2.53137 1.01286 2.30716 1.08416 2.09547C1.15546 1.88379 1.27005 1.68926 1.42065 1.52429C1.57124 1.35932 1.75454 1.22751 1.95886 1.13726C2.16319 1.04701 2.38407 1.00029 2.60744 1.00008H5.02086C5.41128 0.996235 5.78977 1.13449 6.0858 1.38907C6.38182 1.64365 6.57517 1.99718 6.62981 2.38378C6.73168 3.15613 6.92059 3.91447 7.19295 4.64435C7.30118 4.93229 7.32461 5.24523 7.26045 5.54607C7.19629 5.84692 7.04723 6.12307 6.83093 6.3418L5.80925 7.36348C6.95446 9.37752 8.62206 11.0451 10.6361 12.1903L11.6578 11.1687C11.8765 10.9524 12.1527 10.8033 12.4535 10.7391C12.7544 10.675 13.0673 10.6984 13.3552 10.8066C14.0851 11.079 14.8435 11.2679 15.6158 11.3698C16.0066 11.4249 16.3635 11.6217 16.6186 11.9228C16.8737 12.2239 17.0093 12.6083 16.9995 13.0029Z" stroke="currentColor" stroke-linecap="round" stroke-linejoin="round"></path>
  </symbol>
</svg>